<?xml version="1.0" encoding="iso-8859-1"?>
<!-- Generator: Adobe Illustrator 19.0.0, SVG Export Plug-In . SVG Version: 6.00 Build 0)  -->
<svg version="1.1" id="Capa_1" xmlns="http://www.w3.org/2000/svg" xmlns:xlink="http://www.w3.org/1999/xlink" x="0px" y="0px"
	 viewBox="0 0 463 463" style="enable-background:new 0 0 463 463;" xml:space="preserve">
<path d="M382.861,152.923c0.089-0.461,0.139-0.936,0.139-1.423c0-0.746-0.113-1.465-0.315-2.145C377.697,66.116,311.8,0,231.5,0
	S85.303,66.116,80.315,149.355C80.113,150.035,80,150.754,80,151.5c0,0.487,0.05,0.962,0.139,1.423
	C80.055,155.105,80,157.296,80,159.5c0,30.362,18.203,94.918,104.2,230.304c-0.126,0.546-0.2,1.112-0.2,1.696v40
	c0,17.369,14.131,31.5,31.5,31.5h32c17.369,0,31.5-14.131,31.5-31.5v-40c0-0.584-0.074-1.15-0.2-1.696
	C364.798,254.418,383,189.862,383,159.5C383,157.296,382.946,155.105,382.861,152.923z M316.942,296h-14.864
	c16.322-45.824,26.628-83.026,30.796-111.118c5.221,3.841,11.662,6.117,18.626,6.117c4.272,0,8.347-0.859,12.065-2.407
	C356.381,216.064,340.573,252.445,316.942,296z M129.993,63h18.932c-11.546,23.516-18.599,51.494-20.436,81H95.787
	C98.92,113.045,111.323,84.986,129.993,63z M224,63v81h-32.742c0.973-29.942,4.747-58.081,10.912-81H224z M260.83,63
	c6.165,22.92,9.939,51.059,10.912,81H239V63H260.83z M333.008,63c18.67,21.986,31.073,50.045,34.206,81h-32.701
	c-1.837-29.506-8.889-57.484-20.435-81H333.008z M270.401,296c6.909-38.742,13-78.753,15.451-110.422
	c5.038,3.42,11.114,5.422,17.648,5.422c4.93,0,9.597-1.141,13.756-3.168c-4.609,27.373-15.017,63.579-31.111,108.168H270.401z
	 M225.133,384c-4.379-20.707-9.567-46.19-14.561-73h41.856c-4.993,26.81-10.182,52.293-14.561,73H225.133z M176.855,296
	c-16.093-44.589-26.501-80.796-31.11-108.168c4.159,2.027,8.826,3.168,13.755,3.168c6.535,0,12.61-2.001,17.648-5.422
	c2.45,31.669,8.541,71.68,15.45,110.422H176.855z M143.008,159h32.996c0,0.167-0.004,0.333-0.004,0.5c0,9.098-7.402,16.5-16.5,16.5
	s-16.5-7.402-16.5-16.5C143,159.333,143.007,159.167,143.008,159z M272,159.5c0,9.098-7.402,16.5-16.5,16.5s-16.5-7.402-16.5-16.5
	V159h32.996C271.997,159.167,272,159.333,272,159.5z M224,159.5c0,9.098-7.402,16.5-16.5,16.5s-16.5-7.402-16.5-16.5
	c0-0.167,0.004-0.333,0.004-0.5H224V159.5z M192.302,187.079c4.51,2.495,9.69,3.921,15.199,3.921c6.046,0,11.698-1.716,16.5-4.681
	V296h-16.174C200.975,257.885,194.877,218.416,192.302,187.079z M239,296V186.319c4.802,2.965,10.454,4.681,16.5,4.681
	c5.509,0,10.689-1.425,15.199-3.92c-2.575,31.337-8.673,70.805-15.525,108.921H239z M303.5,176c-9.098,0-16.5-7.402-16.5-16.5
	c0-0.167-0.004-0.333-0.004-0.5h32.996c0,0.167,0.007,0.333,0.007,0.5C320,168.598,312.598,176,303.5,176z M297.138,63
	c12.608,22.757,20.349,50.936,22.335,81h-32.722c-0.936-29.599-4.545-57.608-10.436-81H297.138z M176.25,144h-32.722
	c1.986-30.064,9.727-58.244,22.335-81h20.822C180.794,86.391,177.185,114.4,176.25,144z M95.006,159h33.001
	c0,0.167-0.007,0.333-0.007,0.5c0,9.098-7.402,16.5-16.5,16.5S95,168.598,95,159.5C95,159.333,95.006,159.167,95.006,159z
	 M111.5,191c6.964,0,13.405-2.276,18.626-6.117c4.168,28.091,14.474,65.293,30.795,111.118h-14.864
	c-23.631-43.555-39.439-79.936-46.623-107.407C103.154,190.141,107.228,191,111.5,191z M195.323,311
	c4.927,26.645,10.072,52.063,14.479,73h-11.516c-16.524-25.942-31.203-50.348-43.938-73H195.323z M199,399h19.995
	c0.019,0,0.037,0.005,0.056,0.005c0.031,0,0.062-0.005,0.093-0.005h24.796c0.003,0,0.006,0,0.009,0c0.002,0,0.004,0,0.006,0H264v17
	h-65V399z M264.714,384h-11.516c4.407-20.937,9.552-46.355,14.479-73h23.647c0.026,0,0.053,0.003,0.079,0.003
	c0.015,0,0.03-0.003,0.045-0.003h17.205C295.917,333.652,281.238,358.058,264.714,384z M351.5,176c-9.098,0-16.5-7.402-16.5-16.5
	c0-0.167-0.007-0.333-0.007-0.5h33.001c0.001,0.167,0.006,0.333,0.006,0.5C368,168.598,360.598,176,351.5,176z M318.232,48h-16.026
	c-0.48-0.047-0.965-0.047-1.45,0h-34.097c-0.046-0.001-0.091,0-0.137,0h-70.069c-0.032,0-0.064-0.001-0.095,0h-51.589
	c23.598-20.607,53.824-33,86.732-33S294.634,27.393,318.232,48z M247.5,448h-32c-9.098,0-16.5-7.402-16.5-16.5V431h65v0.5
	C264,440.599,256.598,448,247.5,448z"/>
<g>
</g>
<g>
</g>
<g>
</g>
<g>
</g>
<g>
</g>
<g>
</g>
<g>
</g>
<g>
</g>
<g>
</g>
<g>
</g>
<g>
</g>
<g>
</g>
<g>
</g>
<g>
</g>
<g>
</g>
</svg>
