<?xml version="1.0" encoding="iso-8859-1"?>
<!-- Generator: Adobe Illustrator 19.0.0, SVG Export Plug-In . SVG Version: 6.00 Build 0)  -->
<svg version="1.1" id="Layer_1" xmlns="http://www.w3.org/2000/svg" xmlns:xlink="http://www.w3.org/1999/xlink" x="0px" y="0px"
	 viewBox="0 0 512 512" style="enable-background:new 0 0 512 512;" xml:space="preserve">
<g>
	<g>
		<g>
			<path d="M504.021,95.104l-6.037,8.811l5.952-8.875c-17.536-12.011-35.819-13.504-54.293-4.587l-60.459,28.416l-1.792,1.067
				l-37.419-19.563c-15.659-10.432-33.515-15.936-52.011-15.936c-0.021,0-0.021,0-0.021,0l-31.595,0.896
				c-4.523,0.149-8.491,3.136-9.856,7.445s0.149,9.045,3.797,11.755l66.432,49.813l-52.288,27.179
				c-6.421-0.619-25.813-5.376-34.453-7.488c-12.011-2.944-13.867-3.371-15.979-3.371h-21.333c-4.501,0-8.533,2.837-10.048,7.083
				c-1.515,4.245-0.171,8.981,3.328,11.84c18.603,15.189,60.245,46.613,85.867,46.613c4.16,0,7.893-0.832,11.029-2.667
				L504.192,126.08c4.928-3.456,7.829-9.28,7.808-15.531C511.979,104.277,508.971,98.496,504.021,95.104z M282.688,214.763
				c-5.141,1.899-21.909-5.867-41.387-18.453c30.869,7.467,35.883,7.637,40.96,5.163l69.312-36.011
				c3.264-1.707,5.419-4.949,5.717-8.597c0.277-3.648-1.301-7.211-4.245-9.408l-55.552-41.664l0.747-0.021
				c13.973,0,27.776,4.267,40.853,12.907l43.691,22.933c3.307,1.728,7.253,1.6,10.453-0.299l65.6-31.595
				c10.667-5.184,20.117-4.843,29.525,0.597L282.688,214.763z"/>
			<path d="M74.667,128h42.667c5.888,0,10.667-4.779,10.667-10.667s-4.779-10.667-10.667-10.667H74.667
				c-5.888,0-10.667,4.779-10.667,10.667S68.779,128,74.667,128z"/>
			<path d="M160,448h42.667c5.888,0,10.667-4.779,10.667-10.667v-42.667c0-5.888-4.779-10.667-10.667-10.667H160
				c-5.888,0-10.667,4.779-10.667,10.667v42.667C149.333,443.221,154.112,448,160,448z M170.667,405.333H192v21.333h-21.333V405.333
				z"/>
			<path d="M117.333,213.333H74.667C68.779,213.333,64,218.112,64,224v42.667c0,5.888,4.779,10.667,10.667,10.667h42.667
				c5.888,0,10.667-4.779,10.667-10.667V224C128,218.112,123.221,213.333,117.333,213.333z M106.667,256H85.333v-21.333h21.333V256z
				"/>
			<path d="M266.667,448h42.667c5.888,0,10.667-4.779,10.667-10.667v-42.667c0-5.888-4.779-10.667-10.667-10.667h-42.667
				c-5.888,0-10.667,4.779-10.667,10.667v42.667C256,443.221,260.779,448,266.667,448z M277.333,405.333h21.333v21.333h-21.333
				V405.333z"/>
			<path d="M480,341.333h-53.333v-32c0-5.888-4.779-10.667-10.667-10.667H288c-5.888,0-10.667,4.779-10.667,10.667v32H170.667v-160
				c0-5.888-4.779-10.667-10.667-10.667h-6.528l16.64-49.963c0.363-1.088,0.555-2.219,0.555-3.371V74.667
				C170.667,68.779,165.888,64,160,64h-53.333V10.667C106.667,4.779,101.888,0,96,0S85.333,4.779,85.333,10.667V64H32
				c-5.888,0-10.667,4.779-10.667,10.667v42.667c0,1.152,0.192,2.283,0.555,3.371l16.64,49.963H32
				c-5.888,0-10.667,4.779-10.667,10.667v160H10.667C4.779,341.333,0,346.112,0,352v149.333C0,507.221,4.779,512,10.667,512H480
				c5.888,0,10.667-4.779,10.667-10.667V352C490.667,346.112,485.888,341.333,480,341.333z M298.667,320h106.667v21.333H298.667V320
				z M42.667,192.021h10.667c3.435,0,6.656-1.664,8.661-4.437c1.984-2.795,2.539-6.379,1.451-9.621l-20.779-62.357V85.333h106.667
				v30.251l-20.779,62.357c-1.109,3.264-0.555,6.848,1.451,9.621c2.005,2.795,5.227,4.437,8.661,4.437h10.667v149.333H42.667
				V192.021z M426.667,490.667H384v-85.333h42.667V490.667z M469.333,490.667H448v-96c0-5.888-4.779-10.667-10.667-10.667h-64
				c-5.888,0-10.667,4.779-10.667,10.667v96H21.333v-128h448V490.667z"/>
			<path d="M53.333,448H96c5.888,0,10.667-4.779,10.667-10.667v-42.667c0-5.888-4.779-10.667-10.667-10.667H53.333
				c-5.888,0-10.667,4.779-10.667,10.667v42.667C42.667,443.221,47.445,448,53.333,448z M64,405.333h21.333v21.333H64V405.333z"/>
		</g>
	</g>
</g>
<g>
</g>
<g>
</g>
<g>
</g>
<g>
</g>
<g>
</g>
<g>
</g>
<g>
</g>
<g>
</g>
<g>
</g>
<g>
</g>
<g>
</g>
<g>
</g>
<g>
</g>
<g>
</g>
<g>
</g>
</svg>
